<?xml version="1.0" encoding="utf-8"?>
<!-- Generator: Adobe Illustrator 16.0.0, SVG Export Plug-In . SVG Version: 6.00 Build 0)  -->
<!DOCTYPE svg PUBLIC "-//W3C//DTD SVG 1.1//EN" "http://www.w3.org/Graphics/SVG/1.1/DTD/svg11.dtd">
<svg version="1.1" id="Layer_1" xmlns="http://www.w3.org/2000/svg" xmlns:xlink="http://www.w3.org/1999/xlink" x="0px" y="0px"
	 width="864px" height="864px" viewBox="0 0 864 864" enable-background="new 0 0 864 864" xml:space="preserve">
<path id="path2630" fill="#1A2D58" d="M431.952,506.054c0,0,16.326,90.903,16.822,94.742c5.658,4.063,7.814,9.405,8.51,12.953
	c37.484,12.235,57.744,59.517,62.258,89.018c3.84,2.379,11.072,8.171,14.555,19.823c0,0,43.367-76.221,77.348-100.467
	c10.578-7.544,24.301-18.724,41.549-30.061c37.373-24.516,121.346-79.7,122.582-161.375c0.09-5.793-0.314-11.787-1.078-17.871
	c27.334-38.885,38.697-67.308,39.551-102.173c0.426-17.579-3.303-40.568-3.303-40.568c-1.482,3.839-2.941,7.386-4.873,11.562
	c-6.469,14.166-29.174,39.67-73.508,70.921c40.717-35.988,90.037-92.788,91.342-156.368c0.447-21.867-4.92-36.168-10.916-57.788
	c0,0-12.959,75.815-146.051,144.852c-43.055,22.316-82.223,45.463-107.219,70.428c-23.021,23.034-38.99,59.854-55.857,125.252
	c-10.533-24.987-28.793-68.767-31.734-75.815c1.234-0.629,2.156-1.078,2.83-1.46c1.234-0.291,6.311-3.727,18.506,8.127
	c5.301-6.757,10.781-21.081,10.893-30.084c0.045-6.039-1.885-25.368-26.209-28.961c-3.818-5.366-14.217-14.885-47.636-15.02
	c-3.976,0-38.764-0.561-42.852,25.661c-0.292,1.998-28.365,112.904-28.365,112.904c-23.245-65.398-31.69-97.57-54.711-120.604
	c-24.997-24.965-64.165-48.111-107.22-70.428C64.049,214.218,51.113,138.402,51.113,138.402
	c-5.997,21.62-11.364,35.921-10.915,57.788c1.303,63.58,50.623,120.38,91.341,156.368c-44.334-31.251-67.04-56.755-73.531-70.921
	c-1.909-4.177-3.368-7.724-4.851-11.562c0,0-3.729,22.989-3.302,40.568c0.831,34.865,12.218,63.266,39.551,102.173
	c-0.764,6.084-1.168,12.078-1.078,17.871c1.235,81.675,85.21,136.859,122.582,161.375c17.248,11.337,30.97,22.517,41.548,30.061
	c33.981,24.246,77.35,100.467,77.35,100.467c3.481-11.652,10.713-17.444,14.531-19.823c4.536-29.501,24.795-76.782,62.256-89.018
	c0.719-3.548,2.875-8.89,8.534-12.953C415.624,596.957,431.952,506.054,431.952,506.054"/>
<path fill="#FFFFFF" d="M457.102,397.397l14.598-7.297c3.686-0.785,8.064-2.356,18.484,5.456
	c6.289-22.562,1.102-33.204-19.988-33.767c-0.201-9.519-18.686-12.279-19.965-12.639c-5.301-1.19-18.485-1.572-20.237-1.594
	c0,0-28.567-0.966-31.218,15.715L360.64,519.686l68.275-101.903l76.631,99.636L457.102,397.397z M445.557,371.402
	c-5.031-1.1-6.311-5.006-6.311-5.006s-11.814-3.144-16.485-3.615c0,0,16.237-3.053,33.036,5.007
	C455.797,367.788,451.307,372.728,445.557,371.402z"/>
<g>
	<g id="g2640" transform="translate(321.2522,466.3844)">
		<path id="path2642" fill="#E41D36" d="M-95.39,53.309c-50.713-28.085-112.048-56.463-126.781-91.643
			c1.863,54.285,36.137,90.924,73.082,120.043c37.462,29.5,78.067,50.514,92.172,66.095L-83.981,81.35
			c32.363,19.104,61.875,38.053,83.008,57.316C-7.778,130.583-51.82,77.421-95.39,53.309 M-170.56-109.772l11.858,29.096
			c-46.4-26.829-88.961-55.273-102.1-87.984c3.189,103.139,94.485,161.869,159.032,206.366l-38.921-95.46
			C-71.696-18.937-2.208,17.994,24.159,57.35C11.559,37.749-2.612,18.848-19.389,1.897C-51.82-30.185-112.28-64.759-170.56-109.772
			 M-161.061-109.637l-45.524-111.603c-30.252-20.609-53.767-42.432-63.334-66.387C-267.449-207.32-216.018-152.114-161.061-109.637
			"/>
	</g>
	<g id="g2644" transform="translate(335.4005,462.582)">
		<path id="path2646" fill="#E41D36" d="M208.219,142.478c21.135-19.285,50.645-38.212,83.008-57.315l-27.062,66.431
			c14.105-15.56,54.711-36.573,92.172-66.071c36.945-29.12,71.219-65.758,73.104-120.045
			c-14.754,35.158-76.09,63.559-126.803,91.644C259.066,81.231,215.023,134.395,208.219,142.478 M226.658,5.709
			c-16.777,16.949-30.973,35.831-43.57,55.451c26.365-39.377,95.854-76.285,164.848-115.126l-38.922,95.461
			C373.562-2.98,464.859-61.733,468.047-164.849c-13.115,32.688-55.697,61.155-102.098,87.983l11.857-29.118
			C319.549-60.947,259.066-26.374,226.658,5.709 M477.187-283.814c-9.588,23.955-33.104,45.754-63.355,66.363l-45.525,111.625
			C423.264-148.303,474.719-203.531,477.187-283.814"/>
	</g>
</g>
</svg>
