<?xml version="1.0" encoding="UTF-8" standalone="no"?>
<svg
   xmlns:dc="http://purl.org/dc/elements/1.1/"
   xmlns:cc="http://creativecommons.org/ns#"
   xmlns:rdf="http://www.w3.org/1999/02/22-rdf-syntax-ns#"
   xmlns:svg="http://www.w3.org/2000/svg"
   xmlns="http://www.w3.org/2000/svg"
   xmlns:sodipodi="http://sodipodi.sourceforge.net/DTD/sodipodi-0.dtd"
   xmlns:inkscape="http://www.inkscape.org/namespaces/inkscape"
   viewBox="0 0 699.99997 699.99999"
   version="1.1"
   id="svg10"
   sodipodi:docname="philadelphia-phillies-logo.svg"
   inkscape:export-filename="G:\Users\suitedoalex\sites\philadelphia-phillies-logo-0.png"
   inkscape:export-xdpi="561.73712"
   inkscape:export-ydpi="561.73712"
   width="700"
   height="700"
   inkscape:version="0.92.4 (5da689c313, 2019-01-14)">
  <metadata
     id="metadata16">
    <rdf:RDF>
      <cc:Work
         rdf:about="">
        <dc:format>image/svg+xml</dc:format>
        <dc:type
           rdf:resource="http://purl.org/dc/dcmitype/StillImage" />
        <dc:title>Philadelphia Phillies hat dark logo</dc:title>
      </cc:Work>
    </rdf:RDF>
  </metadata>
  <defs
     id="defs14" />
  <sodipodi:namedview
     pagecolor="#ffffff"
     bordercolor="#666666"
     borderopacity="1"
     objecttolerance="10"
     gridtolerance="10"
     guidetolerance="10"
     inkscape:pageopacity="0"
     inkscape:pageshadow="2"
     inkscape:window-width="1600"
     inkscape:window-height="837"
     id="namedview12"
     showgrid="false"
     inkscape:zoom="0.24000911"
     inkscape:cx="-302.88625"
     inkscape:cy="520.93622"
     inkscape:window-x="-8"
     inkscape:window-y="-8"
     inkscape:window-maximized="1"
     inkscape:current-layer="svg10" />
  <title
     id="title2">Philadelphia Phillies hat dark logo</title>
  <path
     d="m 411.11691,556.19931 h -6.6322 v 18.08064 h -4.50436 v -18.08064 h -6.62233 v -3.93984 h 17.75889 z m 30.16072,18.08064 h -4.50437 v -17.53388 h -0.0987 l -6.39534,17.5319 h -4.34252 l -6.16833,-17.5319 h -0.11843 v 17.5319 h -4.47476 v -22.0185 h 7.77704 l 5.12811,14.3974 h 0.11843 l 5.32945,-14.3974 h 7.74941 v 22.0185 z"
     id="path4"
     inkscape:export-filename="G:\Users\suitedoalex\sites\philadelphia-phillies-logo-4.png"
     inkscape:export-xdpi="206.49857"
     inkscape:export-ydpi="206.49857"
     inkscape:connector-curvature="0"
     style="fill:#e81828;stroke-width:1.97386873" />
  <path
     d="m 532.79014,221.33049 c -3.17201,-48.09529 -43.95017,-84.60001 -82.12084,-98.8849 -12.31694,-3.8826 -25.00497,-7.88363 -37.31994,-10.49112 -40.55906,-8.77977 -84.96124,-3.96748 -121.52321,6.49403 -50.18561,14.22568 -98.64212,53.50961 -118.70254,104.70782 -7.9547,20.9763 -9.8654,49.28158 0.34739,71.99489 12.24194,26.25246 39.44579,35.98363 62.92695,35.98363 26.00571,0 43.37378,-19.23733 53.26878,-36.64882 v 103.48994 l -0.55268,70.1434 c -4.04051,5.07285 -8.89425,10.23056 -12.84989,15.64686 -9.05215,13.93552 -21.29212,32.96953 -22.07574,56.00458 0,6.80985 0.38886,18.51489 6.56114,28.24606 8.37315,15.01128 24.5115,21.44412 36.41788,23.67458 15.0093,2.37259 29.94359,-0.0888 42.34541,-4.46094 27.5552,-10.43387 52.18119,-36.56592 56.84347,-67.8853 l 0.20133,-1.10141 0.5823,-133.45327 c 10.35689,-4.08591 20.83024,-8.16787 31.15752,-12.71764 13.18544,-5.88213 26.52879,-12.54394 39.20103,-20.88945 45.51742,-26.79527 70.76715,-76.04923 65.28966,-129.85097 z m -92.10467,33.81238 c -2.85422,14.31054 -17.7589,28.33488 -34.6493,34.09858 -2.78315,1.01456 -5.67882,1.76859 -8.77977,2.43575 l 0.47768,-88.88923 c 17.44111,-0.28819 30.91473,4.89519 37.36139,15.183 l 3.95366,9.41535 c 1.02641,4.83992 2.02717,9.7667 2.4318,14.72111 0.46584,4.8952 0.1737,9.47457 -0.79546,13.03544 z"
     id="path6"
     inkscape:export-filename="G:\Users\suitedoalex\sites\philadelphia-phillies-logo-4.png"
     inkscape:export-xdpi="206.49857"
     inkscape:export-ydpi="206.49857"
     inkscape:connector-curvature="0"
     style="clip-rule:evenodd;fill:#ffffff;fill-rule:evenodd;stroke-width:1.97386873" />
  <path
     d="m 521.31801,222.16939 c -2.62525,-42.82111 -40.37154,-76.08277 -74.31616,-88.80042 l -0.21713,-0.0868 c -10.4161,-3.30234 -23.39626,-7.47707 -35.86915,-10.0806 -46.48461,-10.08253 -92.61392,-0.37504 -115.96479,6.28875 -49.72767,14.10921 -93.36399,52.49701 -111.13868,97.80915 -7.86389,20.68614 -7.82046,45.39898 0.0987,63.07497 8.57843,18.34119 28.19277,29.32182 52.48516,29.32182 19.60052,0 37.59431,-15.17905 48.13872,-40.64788 0.15791,-0.37503 1.20405,-3.73851 1.20405,-3.73851 1.70938,-5.38866 3.46218,-10.92141 3.46218,-17.20818 v -4.31686 h -4.30304 c -2.81079,0 -5.93739,-1.10141 -8.92188,-2.14165 l -2.13178,-0.72638 c -0.95338,-0.72441 -2.05283,-3.03976 -2.05283,-4.60503 2.25613,-13.09662 13.04727,-26.10639 29.3613,-35.81388 v 187.63005 c 0,0 -0.60795,70.92505 -0.62374,73.79308 -1.20407,1.56331 -6.79406,8.45803 -6.79406,8.45803 l -7.92508,9.8496 c -8.73635,13.32954 -19.413,29.75806 -20.13741,49.6882 v 0.0296 c 0,6.98749 0.59216,15.58961 5.0531,22.36788 4.73729,8.86859 15.11194,15.55803 28.33884,18.08064 11.57279,1.79622 24.12067,0.43425 36.4613,-3.93984 25.81426,-9.76473 45.66151,-33.37813 49.4849,-58.78774 0.073,-0.60795 0.5961,-128.08435 0.65136,-140.11113 0.21713,-0.37504 0.26056,-0.40661 0.49348,-0.8389 1.39157,-0.52307 3.37531,-1.30275 3.37531,-1.30275 24.30622,-9.4193 49.41186,-19.20969 71.99884,-34.04332 38.02658,-22.25141 60.49316,-61.97355 60.49316,-105.75199 0,-4.4945 -0.24476,-8.95347 -0.70665,-13.44204 z m -69.40518,35.46647 c -4.15894,20.83024 -24.09304,36.27577 -42.06907,42.44607 -7.59149,2.72395 -15.96465,3.94182 -24.17988,5.07285 0.075,-9.18441 0.63755,-113.14217 0.63755,-113.22506 0.79745,0 7.17107,-0.46584 7.17107,-0.46584 14.27107,-0.83889 39.97084,0.89811 51.94827,21.44214 0.31978,0.72441 4.81032,11.41686 4.81032,11.41686 1.34619,6.71707 3.00029,14.48227 3.00029,22.21984 0,3.76219 -0.37504,7.46912 -1.31855,11.09314 z"
     id="path8"
     inkscape:export-filename="G:\Users\suitedoalex\sites\philadelphia-phillies-logo-4.png"
     inkscape:export-xdpi="206.49857"
     inkscape:export-ydpi="206.49857"
     inkscape:connector-curvature="0"
     style="clip-rule:evenodd;fill:#e81828;fill-rule:evenodd;stroke-width:1.97386873" />
</svg>
